<?xml version="1.0" standalone="no"?><svg xmlns="http://www.w3.org/2000/svg" viewBox="0 0 1440 320"><path fill="#a2d9ff" fill-opacity="1" d="M0,224L24,202.7C48,181,96,139,144,112C192,85,240,75,288,64C336,53,384,43,432,69.3C480,96,528,160,576,176C624,192,672,160,720,165.3C768,171,816,213,864,208C912,203,960,149,1008,154.7C1056,160,1104,224,1152,224C1200,224,1248,160,1296,122.7C1344,85,1392,75,1416,69.3L1440,64L1440,320L1416,320C1392,320,1344,320,1296,320C1248,320,1200,320,1152,320C1104,320,1056,320,1008,320C960,320,912,320,864,320C816,320,768,320,720,320C672,320,624,320,576,320C528,320,480,320,432,320C384,320,336,320,288,320C240,320,192,320,144,320C96,320,48,320,24,320L0,320Z"></path></svg>