<?xml version="1.0" standalone="no"?><svg xmlns="http://www.w3.org/2000/svg" viewBox="0 0 1440 320"><path fill="#0099ff" fill-opacity="1" d="M0,128L26.7,149.3C53.3,171,107,213,160,234.7C213.3,256,267,256,320,256C373.3,256,427,256,480,240C533.3,224,587,192,640,176C693.3,160,747,160,800,181.3C853.3,203,907,245,960,261.3C1013.3,277,1067,267,1120,240C1173.3,213,1227,171,1280,165.3C1333.3,160,1387,192,1413,208L1440,224L1440,320L1413.3,320C1386.7,320,1333,320,1280,320C1226.7,320,1173,320,1120,320C1066.7,320,1013,320,960,320C906.7,320,853,320,800,320C746.7,320,693,320,640,320C586.7,320,533,320,480,320C426.7,320,373,320,320,320C266.7,320,213,320,160,320C106.7,320,53,320,27,320L0,320Z"></path></svg>