<?xml version="1.0" standalone="no"?><svg xmlns="http://www.w3.org/2000/svg" viewBox="0 0 1440 320"><path fill="#a2d9ff" fill-opacity="1" d="M0,64L12.6,96C25.3,128,51,192,76,234.7C101.1,277,126,299,152,261.3C176.8,224,202,128,227,112C252.6,96,278,160,303,202.7C328.4,245,354,267,379,234.7C404.2,203,429,117,455,96C480,75,505,117,531,165.3C555.8,213,581,267,606,282.7C631.6,299,657,277,682,266.7C707.4,256,733,256,758,229.3C783.2,203,808,149,834,149.3C858.9,149,884,203,909,218.7C934.7,235,960,213,985,181.3C1010.5,149,1036,107,1061,106.7C1086.3,107,1112,149,1137,144C1162.1,139,1187,85,1213,69.3C1237.9,53,1263,75,1288,74.7C1313.7,75,1339,53,1364,42.7C1389.5,32,1415,32,1427,32L1440,32L1440,320L1427.4,320C1414.7,320,1389,320,1364,320C1338.9,320,1314,320,1288,320C1263.2,320,1238,320,1213,320C1187.4,320,1162,320,1137,320C1111.6,320,1086,320,1061,320C1035.8,320,1011,320,985,320C960,320,935,320,909,320C884.2,320,859,320,834,320C808.4,320,783,320,758,320C732.6,320,707,320,682,320C656.8,320,632,320,606,320C581.1,320,556,320,531,320C505.3,320,480,320,455,320C429.5,320,404,320,379,320C353.7,320,328,320,303,320C277.9,320,253,320,227,320C202.1,320,177,320,152,320C126.3,320,101,320,76,320C50.5,320,25,320,13,320L0,320Z"></path></svg>